<svg width="142" height="52" viewBox="0 0 142 52" fill="none" xmlns="http://www.w3.org/2000/svg">
<path d="M48.84 40V35.12L64.68 15.96L64.32 15.48H49.32V10.8H71.24V15.68L55.4 34.8L55.76 35.32H71.44V40H48.84ZM85.5031 40.76C82.9431 40.76 80.7831 40.24 79.0231 39.2C77.2631 38.1333 75.9165 36.7467 74.9831 35.04C74.0765 33.3333 73.6231 31.52 73.6231 29.6V28.76C73.6231 26.76 74.0898 24.9067 75.0231 23.2C75.9831 21.4933 77.3431 20.12 79.1031 19.08C80.8898 18.04 83.0231 17.52 85.5031 17.52C87.9565 17.52 90.0631 18.04 91.8231 19.08C93.6098 20.12 94.9698 21.4933 95.9031 23.2C96.8631 24.9067 97.3431 26.76 97.3431 28.76V29.6C97.3431 31.52 96.8765 33.3333 95.9431 35.04C95.0365 36.7467 93.7031 38.1333 91.9431 39.2C90.1831 40.24 88.0365 40.76 85.5031 40.76ZM85.5031 36C87.5298 36 89.0765 35.36 90.1431 34.08C91.2365 32.7733 91.7831 31.1333 91.7831 29.16C91.7831 27.1867 91.2231 25.5467 90.1031 24.24C88.9831 22.9333 87.4498 22.28 85.5031 22.28C83.5298 22.28 81.9831 22.9333 80.8631 24.24C79.7431 25.5467 79.1831 27.1867 79.1831 29.16C79.1831 31.1333 79.7165 32.7733 80.7831 34.08C81.8765 35.36 83.4498 36 85.5031 36ZM110.852 40.28C108.852 40.28 107.198 40.0267 105.892 39.52C104.585 38.9867 103.612 38.1067 102.972 36.88C102.358 35.6533 102.052 33.9733 102.052 31.84V22.36H98.6116V18.28H102.052L102.092 12.16H107.292L107.252 18.28H113.972V22.36H107.252V32.2C107.252 33.2667 107.532 34.0933 108.092 34.68C108.678 35.24 109.505 35.52 110.572 35.52H113.972V40.28H110.852ZM123.92 40.56C121.52 40.56 119.6 39.9467 118.16 38.72C116.747 37.4933 116.04 35.7733 116.04 33.56C116.04 31.1867 116.893 29.44 118.6 28.32C120.333 27.1733 122.653 26.6 125.56 26.6H130V26.4C130 23.92 128.747 22.68 126.24 22.68C125.573 22.68 124.773 22.6933 123.84 22.72C122.907 22.7467 121.96 22.7867 121 22.84C120.067 22.8667 119.227 22.9067 118.48 22.96V18.24C119.387 18.16 120.467 18.0933 121.72 18.04C123 17.9867 124.173 17.96 125.24 17.96C128.573 17.96 131.08 18.64 132.76 20C134.467 21.3333 135.32 23.5067 135.32 26.52V40H130.92V35.84C129.933 38.9867 127.6 40.56 123.92 40.56ZM125.48 36.6C126.227 36.6 126.933 36.4667 127.6 36.2C128.267 35.9067 128.813 35.4267 129.24 34.76C129.693 34.0667 129.947 33.1333 130 31.96V29.92H125.48C124.2 29.92 123.213 30.24 122.52 30.88C121.853 31.4933 121.52 32.2933 121.52 33.28C121.52 34.2933 121.853 35.1067 122.52 35.72C123.213 36.3067 124.2 36.6 125.48 36.6Z" fill="white"/>
<path d="M25.4431 19.7161H5.55687C5.07734 19.7161 4.71065 19.3222 4.71065 18.8721L4.71065 10.7748C4.71065 4.83881 9.56233 0 15.5141 0C21.4377 0.0281326 26.2894 4.83881 26.2894 10.7748V18.844C26.2894 19.3222 25.8945 19.7161 25.4431 19.7161ZM6.4313 18H24.5687V10.7748C24.5687 5.79532 20.5068 1.74422 15.4859 1.74422C10.465 1.74422 6.4313 5.79532 6.4313 10.7748V18Z" fill="white"/>
<path fill-rule="evenodd" clip-rule="evenodd" d="M2.90537 15H28.0946L31 41.9229H0L2.90537 15ZM10.9745 32.804V35H21.1445V32.894H14.0885L13.9265 32.66L21.0545 24.056V21.86H11.1905V23.966H17.9405L18.1025 24.182L10.9745 32.804Z" fill="white"/>
</svg>
