<svg width="170" height="43" viewBox="0 0 170 43" fill="none" xmlns="http://www.w3.org/2000/svg">
<path d="M31.8698 39.5767C32.6448 39.1071 32.8926 38.0983 32.423 37.3231C31.9534 36.5479 30.9446 36.3003 30.1695 36.7699C27.4135 38.4395 24.2435 39.3219 21.0025 39.3219C11.2312 39.3219 3.28165 31.3724 3.28165 21.6011C3.28165 11.8298 11.2312 3.88027 21.0025 3.88027C30.7738 3.88027 38.7233 11.8298 38.7233 21.6011C38.7233 25.0951 37.6842 28.4961 35.7185 31.4365C35.2147 32.1899 35.4172 33.2089 36.1705 33.7124C36.9241 34.2162 37.9429 34.0137 38.4465 33.2604C40.7745 29.7784 42.0049 25.7466 42.0049 21.6011C42.0049 15.9911 39.8203 10.717 35.8535 6.75005C31.8866 2.7833 26.6124 0.598633 21.0025 0.598633C15.3925 0.598633 10.1184 2.7833 6.15144 6.75005C2.18468 10.717 1.52588e-05 15.9911 1.52588e-05 21.6011C1.52588e-05 27.211 2.18468 32.4852 6.15144 36.4521C10.1184 40.4189 15.3925 42.6035 21.0025 42.6035C24.843 42.6035 28.6008 41.5569 31.8698 39.5767Z" fill="#5191FA"/>
<path fill-rule="evenodd" clip-rule="evenodd" d="M23.8158 29.6524C24.2354 29.6524 24.5774 29.7923 24.8572 30.072C25.1473 30.3622 25.2924 30.7041 25.2924 31.0979C25.2924 31.502 25.1473 31.8491 24.8572 32.1393C24.5774 32.419 24.2354 32.5589 23.8313 32.5589C22.0335 32.5589 20.5103 31.9268 19.2461 30.6627C17.982 29.3985 17.3499 27.8753 17.3499 26.093V12.0888C17.3499 11.6951 17.4898 11.3531 17.7696 11.063C18.0597 10.7832 18.4068 10.6433 18.8109 10.6433C19.2047 10.6433 19.5466 10.7832 19.8368 11.063C20.1165 11.3531 20.2564 11.6951 20.2564 12.0888V16.9071H22.6034C23.0075 16.9071 23.3495 17.047 23.6293 17.3268C23.9194 17.6066 24.0645 17.9485 24.0645 18.3526C24.0645 18.7567 23.9194 19.0987 23.6293 19.3785C23.3495 19.6686 23.0075 19.8137 22.6034 19.8137H20.2564V26.093C20.2564 27.0774 20.6036 27.9167 21.2978 28.611C21.9921 29.3053 22.8314 29.6524 23.8158 29.6524Z" fill="#5191FA"/>
<path fill-rule="evenodd" clip-rule="evenodd" d="M69.3556 13.1069H64.5814V32.6255H61.9855V13.1069H57.1815V10.5767H69.3556V13.1069ZM78.5458 16.4502L77.2627 18.5587C76.9246 18.378 76.5964 18.2876 76.2781 18.2876C75.6614 18.2876 75.1044 18.5939 74.6071 19.2063C74.1098 19.8188 73.7368 20.622 73.4882 21.616C73.2395 22.61 73.1152 24.4022 73.1152 26.9927V32.6254H70.6088V16.2093H73.1152V17.9864C73.6125 17.2434 74.1148 16.6912 74.622 16.3297C75.1293 15.9683 75.7062 15.7876 76.3527 15.7876C76.9992 15.7876 77.7302 16.0085 78.5458 16.4502ZM96.8665 32.6254H94.4496V30.2157C92.6792 32.1836 90.6403 33.1675 88.3328 33.1675C86.0253 33.1675 84.051 32.3091 82.4099 30.5922C80.7687 28.8752 79.9482 26.827 79.9482 24.4474C79.9482 22.0678 80.7737 20.0297 82.4248 18.3328C84.0758 16.636 86.0899 15.7876 88.467 15.7876C90.8442 15.7876 92.8383 16.7615 94.4496 18.7093V16.2093H96.8665V32.6254ZM88.5118 30.8483C90.1629 30.8483 91.5851 30.2458 92.7787 29.041C93.9722 27.8361 94.569 26.3351 94.569 24.5378C94.569 22.7406 93.9822 21.2346 92.8085 20.0197C91.6349 18.8048 90.1977 18.1973 88.4969 18.1973C86.7961 18.1973 85.3589 18.8248 84.1852 20.0799C83.0116 21.335 82.4248 22.8159 82.4248 24.5228C82.4248 26.2297 83.0215 27.7106 84.2151 28.9657C85.4086 30.2207 86.8408 30.8483 88.5118 30.8483ZM114.978 16.2094L107.549 33.1677H106.952L99.4625 16.2094H102.058L107.22 28.0772L112.382 16.2094H114.978ZM133.598 24.8541H119.335C119.434 26.6614 120.036 28.1122 121.14 29.2066C122.244 30.301 123.562 30.8482 125.094 30.8482C127.699 30.8482 129.689 29.553 131.061 26.9626L133.15 28.0469C132.215 29.794 131.111 31.0841 129.838 31.9175C128.565 32.7509 127.043 33.1675 125.273 33.1675C122.826 33.1675 120.807 32.3191 119.215 30.6223C117.624 28.9255 116.828 26.8822 116.828 24.4926C116.828 22.103 117.629 20.0548 119.23 18.3479C120.832 16.641 122.816 15.7876 125.183 15.7876C127.55 15.7876 129.53 16.5958 131.121 18.2123C132.712 19.8288 133.538 22.0427 133.598 24.8541ZM130.852 22.6553C130.554 21.2496 129.878 20.1552 128.823 19.372C127.769 18.5889 126.556 18.1973 125.183 18.1973C122.398 18.1973 120.548 19.6833 119.633 22.6553H130.852ZM139.118 32.6254H136.671V10.0344H139.118V32.6254ZM158.96 24.8541H144.697C144.797 26.6614 145.399 28.1122 146.503 29.2066C147.607 30.301 148.924 30.8482 150.456 30.8482C153.062 30.8482 155.051 29.553 156.424 26.9626L158.513 28.0469C157.578 29.794 156.474 31.0841 155.2 31.9175C153.927 32.7509 152.406 33.1675 150.635 33.1675C148.188 33.1675 146.169 32.3191 144.578 30.6223C142.987 28.9255 142.191 26.8822 142.191 24.4926C142.191 22.103 142.992 20.0548 144.593 18.3479C146.194 16.641 148.178 15.7876 150.546 15.7876C152.913 15.7876 154.892 16.5958 156.484 18.2123C158.075 19.8288 158.9 22.0427 158.96 24.8541ZM156.215 22.6553C155.917 21.2496 155.24 20.1552 154.186 19.372C153.132 18.5889 151.918 18.1973 150.546 18.1973C147.761 18.1973 145.911 19.6833 144.996 22.6553H156.215ZM169.195 16.4502L167.912 18.5587C167.573 18.378 167.245 18.2876 166.927 18.2876C166.31 18.2876 165.753 18.5939 165.256 19.2063C164.759 19.8188 164.386 20.622 164.137 21.616C163.888 22.61 163.764 24.4022 163.764 26.9927V32.6254H161.258V16.2093H163.764V17.9864C164.261 17.2434 164.764 16.6912 165.271 16.3297C165.778 15.9683 166.355 15.7876 167.002 15.7876C167.648 15.7876 168.379 16.0085 169.195 16.4502Z" fill="#5191FA"/>
</svg>
