<svg width="95" height="32" viewBox="0 0 95 32" fill="none" xmlns="http://www.w3.org/2000/svg">
<path d="M25.056 3.28V31H17.034L8.424 16.006L6.324 11.89H6.282L6.45 17.014V31H0.0660003V3.28H8.088L16.698 18.274L18.798 22.39H18.84L18.672 17.266V3.28H25.056ZM32.5829 7.564C31.1269 7.564 30.0629 7.298 29.3909 6.766C28.7469 6.206 28.4249 5.338 28.4249 4.162C28.4249 2.958 28.7469 2.09 29.3909 1.558C30.0629 0.997999 31.1269 0.717999 32.5829 0.717999C34.0109 0.717999 35.0609 0.997999 35.7329 1.558C36.4049 2.09 36.7409 2.958 36.7409 4.162C36.7409 5.338 36.4049 6.206 35.7329 6.766C35.0609 7.298 34.0109 7.564 32.5829 7.564ZM36.1529 10V31H29.0129V10H36.1529ZM62.6135 10L52.5335 20.752L51.1895 21.13L45.1835 27.85L45.1415 20.542L54.6755 10H62.6135ZM46.6955 1.096V31H39.5555V1.096H46.6955ZM53.6255 16.3L63.0755 31H55.1795L48.9635 20.5L53.6255 16.3ZM75.5564 17.686C75.5564 16.706 75.2764 15.936 74.7164 15.376C74.1844 14.788 73.4564 14.494 72.5324 14.494C71.6084 14.494 70.8104 14.732 70.1384 15.208C69.4944 15.656 69.0464 16.468 68.7944 17.644L62.7464 16.216C63.1384 14.2 64.1744 12.59 65.8544 11.386C67.5344 10.182 69.9004 9.58 72.9524 9.58C74.9964 9.58 76.7324 9.888 78.1604 10.504C79.6164 11.092 80.7224 11.988 81.4784 13.192C82.2624 14.368 82.6544 15.824 82.6544 17.56V25.246C82.6544 26.338 83.1444 26.884 84.1244 26.884C84.6284 26.884 85.0344 26.828 85.3424 26.716L84.9224 30.79C84.0824 31.182 83.0604 31.378 81.8564 31.378C80.7644 31.378 79.7984 31.21 78.9584 30.874C78.1184 30.51 77.4604 29.978 76.9844 29.278C76.5084 28.55 76.2704 27.64 76.2704 26.548V26.296L77.0684 26.002C77.0684 27.206 76.7044 28.214 75.9764 29.026C75.2764 29.838 74.3524 30.44 73.2044 30.832C72.0844 31.224 70.9084 31.42 69.6764 31.42C68.2484 31.42 67.0024 31.196 65.9384 30.748C64.8744 30.3 64.0484 29.656 63.4604 28.816C62.9004 27.948 62.6204 26.884 62.6204 25.624C62.6204 24.112 63.0684 22.866 63.9644 21.886C64.8884 20.878 66.3304 20.178 68.2904 19.786L76.2284 18.148L76.1864 21.928L72.1544 22.768C71.3144 22.936 70.6844 23.188 70.2644 23.524C69.8724 23.832 69.6764 24.308 69.6764 24.952C69.6764 25.568 69.9004 26.03 70.3484 26.338C70.7964 26.646 71.3284 26.8 71.9444 26.8C72.4204 26.8 72.8684 26.73 73.2884 26.59C73.7364 26.45 74.1284 26.24 74.4644 25.96C74.8004 25.652 75.0664 25.274 75.2624 24.826C75.4584 24.378 75.5564 23.846 75.5564 23.23V17.686Z" fill="#333333"/>
<path d="M90.0087 23.776C91.3247 23.776 92.3467 24.112 93.0747 24.784C93.8307 25.456 94.2087 26.394 94.2087 27.598C94.2087 28.774 93.8307 29.698 93.0747 30.37C92.3467 31.042 91.3247 31.378 90.0087 31.378C88.7207 31.378 87.6987 31.042 86.9427 30.37C86.1867 29.698 85.8087 28.774 85.8087 27.598C85.8087 26.394 86.1867 25.456 86.9427 24.784C87.6987 24.112 88.7207 23.776 90.0087 23.776Z" fill="#0268D3"/>
</svg>
